<svg xmlns="http://www.w3.org/2000/svg" viewBox="0 0 23.21 29.95"><defs><style>.cls-1{fill:none;stroke:#000;stroke-miterlimit:10;}</style></defs><g id="Layer_2" data-name="Layer 2"><g id="footer"><path class="cls-1" d="M16.5,3.74H9.19s-7.07.54-7,6.54S9,15.33,9,15.33a5.65,5.65,0,0,0-.29,1.72,5.32,5.32,0,0,0,.77,1.72S0,19.19.52,24.71s7.3,4.7,7.3,4.7,7.83.46,8.5-6.06c.24-2.32-1-4-3.74-5.88A1.78,1.78,0,0,1,11.69,16c.06-1,3.38-3.33,3.56-5.88a5.35,5.35,0,0,0-2-4.22l1.78-.06Z"/><path class="cls-1" d="M7.88,6.77s-2.13.48-1.12,4,3.5,2.2,3.5,2.2,2.09-.5.77-3.86S7.88,6.77,7.88,6.77Z"/><path class="cls-1" d="M9.73,20.91s-4.52.48-4.82,2.2.89,3.33,3.39,3.8,4.4-.83,4.51-2.61S9.73,20.91,9.73,20.91Z"/><line class="cls-1" x1="18.93" y1="2.32" x2="23.21" y2="2.32"/><line class="cls-1" x1="21.01" y1="4.69" x2="21.01"/></g></g></svg>