<svg xmlns="http://www.w3.org/2000/svg" viewBox="0 0 27.68 23.08"><defs><style>.cls-1{fill:none;stroke:#000;stroke-linejoin:round;}</style></defs><g id="Layer_2" data-name="Layer 2"><g id="footer"><path class="cls-1" d="M13.12,7.58S4.61,7,1.82,2.14c0,0-2.44,2.49.77,6.83,0,0-1.44,1.59-1.9,1.13S.27,12.71,5,14.32c0,0-2.85,1.78-3.26,1.3a7.67,7.67,0,0,0,5.4,2.8A7.51,7.51,0,0,1,.51,20.85s21.32,9,23.76-14l2.91-3.38-2.91.65,2.14-3L22.67,2.44a5.31,5.31,0,0,0-6.48-1.37C12.15,2.91,13.12,7.58,13.12,7.58Z"/></g></g></svg>